<svg id="Layer_1" data-name="Layer 1" xmlns="http://www.w3.org/2000/svg" viewBox="0 0 19.28 21.96"><defs><style>.cls-1{fill:none;}.cls-2{fill:#231f20;}</style></defs><path class="cls-1" d="M-1480.44,645.17a12.81,12.81,0,0,0-4-1.06.21.21,0,0,0-.17.11c-.16.23-.31.47-.47.71l-1.76,2.78a.67.67,0,0,1-.72.36.7.7,0,0,1-.49-.38l-2.18-3.43a.25.25,0,0,0-.3-.15c-.3.07-.61.09-.91.15a10.14,10.14,0,0,0-3.26,1.06,4.35,4.35,0,0,0-.87.68.66.66,0,0,0,0,1,3,3,0,0,0,.46.41,7.32,7.32,0,0,0,2.22,1,21.72,21.72,0,0,0,5.44.72c.81-.06,1.61-.09,2.42-.16a14.64,14.64,0,0,0,4.07-.91,4.13,4.13,0,0,0,1.62-1,.7.7,0,0,0,0-1.07A3.24,3.24,0,0,0-1480.44,645.17Z" transform="translate(1497.07 -628.38)"/><path class="cls-2" d="M-1487.42,637.44a1.94,1.94,0,0,0,1.92-1.93,2,2,0,0,0-1.93-1.92,2,2,0,0,0-1.93,1.92A2,2,0,0,0-1487.42,637.44Z" transform="translate(1497.07 -628.38)"/><path class="cls-2" d="M-1477.91,645.86a2.86,2.86,0,0,0-1.27-1.45,10.46,10.46,0,0,0-3.32-1.26c-.41-.1-.82-.17-1.25-.26l.1-.18c.74-1.15,1.49-2.3,2.21-3.46a6.81,6.81,0,0,0,.92-5.18,6.81,6.81,0,0,0-2.78-4.3,6.73,6.73,0,0,0-6.89-.78,6.86,6.86,0,0,0-4.2,5.36,6.77,6.77,0,0,0,1,4.9c.72,1.16,1.47,2.31,2.21,3.46l.1.18-.16,0a16.14,16.14,0,0,0-3.07.81,5.69,5.69,0,0,0-2,1.23,2,2,0,0,0-.6,2.06,2.48,2.48,0,0,0,.74,1.11,6.82,6.82,0,0,0,2.34,1.26,18.41,18.41,0,0,0,4.47.86l1,.08h2l.21,0c.87-.09,1.74-.15,2.61-.28a12.24,12.24,0,0,0,3.88-1.15,4,4,0,0,0,1.55-1.22A1.85,1.85,0,0,0-1477.91,645.86Zm-9.53-13.55a3.21,3.21,0,0,1,3.22,3.2,3.22,3.22,0,0,1-3.21,3.22,3.22,3.22,0,0,1-3.21-3.22A3.21,3.21,0,0,1-1487.44,632.31Zm8.11,14.71a4.13,4.13,0,0,1-1.62,1,14.64,14.64,0,0,1-4.07.91c-.81.07-1.61.1-2.42.16a21.72,21.72,0,0,1-5.44-.72,7.32,7.32,0,0,1-2.22-1,3,3,0,0,1-.46-.41.66.66,0,0,1,0-1,4.35,4.35,0,0,1,.87-.68,10.14,10.14,0,0,1,3.26-1.06c.3-.06.61-.08.91-.15a.25.25,0,0,1,.3.15l2.18,3.43a.7.7,0,0,0,.49.38.67.67,0,0,0,.72-.36l1.76-2.78c.16-.24.31-.48.47-.71a.21.21,0,0,1,.17-.11,12.81,12.81,0,0,1,4,1.06,3.24,3.24,0,0,1,1.11.78A.7.7,0,0,1-1479.33,647Z" transform="translate(1497.07 -628.38)"/></svg>