<svg id="Layer_1" data-name="Layer 1" xmlns="http://www.w3.org/2000/svg" viewBox="0 0 22.37 22.37"><defs><style>.cls-1{fill:#231f20;}</style></defs><path class="cls-1" d="M-151.48,454.5h-10.28a.21.21,0,0,0-.18.18v5.74h10.79v-5.6C-151.15,454.56-151.21,454.5-151.48,454.5Z" transform="translate(167.73 -446.95)"/><path class="cls-1" d="M-156.54,447a11.18,11.18,0,0,0-11.19,11.18,11.18,11.18,0,0,0,11.19,11.18,11.18,11.18,0,0,0,11.18-11.18A11.18,11.18,0,0,0-156.54,447Zm2,17.29h-4.06a.24.24,0,0,1-.27-.23.24.24,0,0,1,.24-.28h.24a.51.51,0,0,0,.51-.45c0-.11,0-.21.05-.31h2.49c0,.09,0,.18,0,.27a.52.52,0,0,0,.55.49h.21a.23.23,0,0,1,.24.25A.23.23,0,0,1-154.5,464.24Zm4.31-2.55a.75.75,0,0,1-.56.75.75.75,0,0,1-.21,0h-11.18a.75.75,0,0,1-.76-.71v-7.35a.79.79,0,0,1,.14-.52.75.75,0,0,1,.66-.32H-151a.78.78,0,0,1,.64.26.73.73,0,0,1,.19.47v7.39Z" transform="translate(167.73 -446.95)"/><path class="cls-1" d="M-156.55,461.17a.28.28,0,0,0-.27.28.28.28,0,0,0,.27.28.29.29,0,0,0,.28-.28A.29.29,0,0,0-156.55,461.17Z" transform="translate(167.73 -446.95)"/></svg>