<svg id="Layer_1" data-name="Layer 1" xmlns="http://www.w3.org/2000/svg" viewBox="0 0 20.72 20.72"><defs><style>.cls-1{fill:#231f20;}</style></defs><path class="cls-1" d="M-92.89,636.48a10.36,10.36,0,0,0-10.48,10.18A10.34,10.34,0,0,0-93,657.2a10.35,10.35,0,0,0,10.36-10.15A10.35,10.35,0,0,0-92.89,636.48ZM-89,649.59a1.78,1.78,0,0,1-.82,1.26,5.24,5.24,0,0,1-3.66,1,5.18,5.18,0,0,1-2.65-.94,1.94,1.94,0,0,1-.9-1.8c0-.38,0-.76,0-1.19l.24.1,3.26,1.71a1.06,1.06,0,0,0,1.06,0l3.23-1.69.25-.12C-89,648.49-89,649.05-89,649.59Zm2.44,1.2a.43.43,0,0,1-.52.26c-.26-.08-.29-.29-.29-.52,0-1.46,0-2.92,0-4.43l-.29.14c-1.68.9-3.35,1.78-5,2.68a.69.69,0,0,1-.72,0l-5.72-3.06a2.3,2.3,0,0,1-.34-.28v-.29a2.72,2.72,0,0,1,.38-.31l5.74-3.07a.54.54,0,0,1,.6,0L-87,645a4.13,4.13,0,0,1,.42.31Z" transform="translate(103.37 -636.48)"/></svg>