<?xml version="1.0" encoding="utf-8"?>
<!-- Generator: Adobe Illustrator 25.2.0, SVG Export Plug-In . SVG Version: 6.00 Build 0)  -->
<svg version="1.1" id="Layer_1" xmlns="http://www.w3.org/2000/svg" xmlns:xlink="http://www.w3.org/1999/xlink" x="0px" y="0px"
	 viewBox="0 0 21.3 21.3" style="enable-background:new 0 0 21.3 21.3;" xml:space="preserve">
<style type="text/css">
	.st0{fill:#FFFFFF;stroke:#000000;stroke-miterlimit:10;}
	.st1{fill:#00A8EC;}
</style>
<rect x="3.4" y="5.4" class="st0" width="14.2" height="10.4"/>
<g>
	<path class="st1" d="M19.4,4.6c-0.9-1.3-2.1-2.4-3.4-3.2c-3.6-2-8.3-1.8-11.6,0.7C3.2,2.9,2.2,4,1.5,5.2c-1.6,2.8-1.9,6.2-0.8,9.1
		c0.3,1,0.7,1.8,1.3,2.6c1.6,2.3,4.1,3.8,6.9,4.2c4.1,0.6,8.2-1.1,10.5-4.5C21.8,13.1,21.8,8.2,19.4,4.6z M16.4,6.9l-5.9,5l-5.8-5
		C5,6.7,15.8,6.7,16.4,6.9z M16.7,13.8c0,0.3-0.2,0.6-0.6,0.7H16H5.3c-0.9,0-1-0.1-1-1v-6l1.5,1.3l4.1,3.5c0.2,0.3,0.6,0.3,0.9,0.1
		l0.1-0.1l5.3-4.6l0.3-0.3C16.7,9.7,16.7,11.7,16.7,13.8z"/>
</g>
</svg>
