<svg id="Layer_1" data-name="Layer 1" xmlns="http://www.w3.org/2000/svg" viewBox="0 0 16.03 15.66"><defs><style>.cls-1{fill:#23764c;}.cls-2{fill:#fff;}</style></defs><path class="cls-1" d="M-144.79,540.1h1.08v1.45h5.47a1.71,1.71,0,0,1,.92.17,1.71,1.71,0,0,1,.18.92c0,3.17,0,6.32,0,9.48a8.54,8.54,0,0,1-.06,1.6c-.07.38-.53.39-.83.4h-5.67v1.64h-1.13c-2.77-.51-5.55-1-8.33-1.46V541.55Z" transform="translate(153.17 -540.1)"/><path class="cls-2" d="M-143.71,542.1h6v11.47h-6v-1.09h1.46V551.2h-1.46v-.72h1.46V549.2h-1.46v-.73h1.46V547.2h-1.46v-.73h1.46v-1.28h-1.46v-.72h1.46v-1.28h-1.46Z" transform="translate(153.17 -540.1)"/><path class="cls-1" d="M-141.52,543.19H-139v1.28h-2.55Z" transform="translate(153.17 -540.1)"/><path class="cls-2" d="M-147.78,544.9l1.24-.08c-.48,1-1,2-1.47,3,.5,1,1,2,1.52,3.05l-1.32-.08a21.39,21.39,0,0,1-.91-2.29c-.24.74-.6,1.44-.88,2.16-.4,0-.8,0-1.2,0,.47-.91.92-1.84,1.4-2.75-.41-.94-.86-1.85-1.28-2.79l1.2-.07c.27.72.57,1.42.8,2.15.24-.78.59-1.5.9-2.25Z" transform="translate(153.17 -540.1)"/><path class="cls-1" d="M-141.52,545.19H-139v1.28h-2.55Zm0,2H-139v1.27h-2.55Zm0,2H-139v1.28h-2.55Zm0,2H-139v1.28h-2.55Z" transform="translate(153.17 -540.1)"/></svg>