<svg id="Layer_1" data-name="Layer 1" xmlns="http://www.w3.org/2000/svg" xmlns:xlink="http://www.w3.org/1999/xlink" viewBox="0 0 21.59 21.59"><defs><style>.cls-1{fill:none;}.cls-2{clip-path:url(#clip-path);}.cls-3{fill:#3772b9;}.cls-4{fill:#fff;}</style><clipPath id="clip-path" transform="translate(143.83 -319.21)"><circle class="cls-1" cx="-133.06" cy="330" r="10.79"/></clipPath></defs><g class="cls-2"><path class="cls-3" d="M-143.83,338V322l0,0h0v-.12c.09,0,.07-.06.08-.1a3.19,3.19,0,0,1,2.43-2.44s.12,0,.1-.08h.13s0,0,0,0,0,0,0,0h16a.07.07,0,0,0,.07,0s0,0,0,0h.12c.07.07.07.07.12.09a3.16,3.16,0,0,1,2.41,2.41c0,.05,0,.12.09.12V322c-.07,0,0,.06,0,.09v15.85s-.07.05,0,.08v.17c-.07.06-.07.06-.09.12a3.19,3.19,0,0,1-2.41,2.41s-.12,0-.12.08H-125s0,0,0,0,0,0,0,0h-6.33c0-2.48,0-5,0-7.46,0-.17.05-.22.22-.21H-129c.15,0,.19,0,.22-.19.13-.9.26-1.8.41-2.7,0-.19,0-.24-.19-.23h-2.59c-.1,0-.18,0-.18-.14,0-.68,0-1.35,0-2a1.46,1.46,0,0,1,1.36-1.5,10.4,10.4,0,0,1,1.58,0c.12,0,.18,0,.18-.17q0-1.17,0-2.34c0-.12,0-.16-.15-.18a12.4,12.4,0,0,0-3-.14,3.55,3.55,0,0,0-3,2.11,4.91,4.91,0,0,0-.39,2c0,.73,0,1.46,0,2.19,0,.15,0,.2-.2.2h-2.36c-.14,0-.19,0-.19.18q0,1.38,0,2.76c0,.15,0,.19.19.18H-135c.19,0,.24,0,.24.24q0,3.7,0,7.43H-141l0,0v0h-.13c-.06-.07-.06-.07-.12-.08a3.21,3.21,0,0,1-2.41-2.41c0-.05,0-.13-.08-.12v-.13h0Z" transform="translate(143.83 -319.21)"/><path class="cls-4" d="M-134.73,340.79q0-3.72,0-7.43c0-.2-.05-.25-.24-.24h-2.32c-.15,0-.19,0-.19-.18q0-1.38,0-2.76c0-.15.05-.18.19-.18h2.36c.16,0,.2-.05.2-.2,0-.73,0-1.46,0-2.19a4.91,4.91,0,0,1,.39-2,3.55,3.55,0,0,1,3-2.11,12.4,12.4,0,0,1,3,.14c.11,0,.15.06.15.18q0,1.17,0,2.34c0,.14-.06.16-.18.17a10.4,10.4,0,0,0-1.58,0,1.46,1.46,0,0,0-1.36,1.5c0,.68,0,1.35,0,2,0,.15.08.14.18.14h2.59c.2,0,.23,0,.19.23-.15.9-.28,1.8-.41,2.7,0,.15-.07.2-.22.19h-2.11c-.17,0-.22,0-.22.21,0,2.49,0,5,0,7.46Z" transform="translate(143.83 -319.21)"/><path d="M-143.83,338.18c.09,0,.07.07.08.12a3.21,3.21,0,0,0,2.41,2.41c.06,0,.06,0,.12.08h-2.47c-.12,0-.15,0-.14-.14Z" transform="translate(143.83 -319.21)"/><path d="M-141.22,319.21c0,.09-.06.07-.1.08a3.19,3.19,0,0,0-2.43,2.44s0,.11-.08.1v-2.49c0-.11,0-.13.13-.13Z" transform="translate(143.83 -319.21)"/><path d="M-122.25,321.83c-.09,0-.07-.07-.09-.12a3.16,3.16,0,0,0-2.41-2.41s0,0-.12-.09h2.49c.11,0,.13,0,.13.13Z" transform="translate(143.83 -319.21)"/><path d="M-124.87,340.79c0-.09.07-.07.12-.08a3.19,3.19,0,0,0,2.41-2.41c0-.06,0-.06.09-.12v2.48c0,.11,0,.13-.13.13Z" transform="translate(143.83 -319.21)"/><path d="M-125,319.21s0,0,0,0a.07.07,0,0,1-.07,0Z" transform="translate(143.83 -319.21)"/><path d="M-122.25,322.08s-.07-.06,0-.09Z" transform="translate(143.83 -319.21)"/><path d="M-122.25,338c-.07,0,0-.06,0-.08Z" transform="translate(143.83 -319.21)"/><path d="M-141,319.21s0,0,0,0,0,0,0,0Z" transform="translate(143.83 -319.21)"/><path d="M-143.83,322h0l0,0Z" transform="translate(143.83 -319.21)"/><path d="M-143.83,338l0,0h0Z" transform="translate(143.83 -319.21)"/><path d="M-141.09,340.79v0l0,0Z" transform="translate(143.83 -319.21)"/><path d="M-125,340.79s0,0,0,0,0,0,0,0Z" transform="translate(143.83 -319.21)"/></g></svg>