<svg id="Layer_1" data-name="Layer 1" xmlns="http://www.w3.org/2000/svg" viewBox="0 0 22.37 22.37"><defs><style>.cls-1{fill:#231f20;}</style></defs><path class="cls-1" d="M-174.61,694.56a11.19,11.19,0,0,0-11.19,11.18,11.19,11.19,0,0,0,11.19,11.19,11.19,11.19,0,0,0,11.18-11.19A11.19,11.19,0,0,0-174.61,694.56Zm-2.75,12.63a1.57,1.57,0,0,1-1.56-1.23c0-.09-.06-.11-.15-.11H-180c-.22,0-.3-.08-.3-.3v-5c0-.21.09-.3.3-.3h5.27c.22,0,.3.07.3.3v.64c0,.19-.07.27-.28.28a1.1,1.1,0,0,0-1,.92,1.1,1.1,0,0,0,1,1.28c.24,0,.29.08.29.32v1.56c0,.21-.08.3-.29.3h-1c-.08,0-.12,0-.14.11A1.58,1.58,0,0,1-177.36,707.19Zm9.17,1.73-3.53,3.53a.26.26,0,0,1-.44,0l-3.68-3.69c-.21-.2-.2-.3,0-.5l.44-.43c.18-.18.27-.19.46,0a1.1,1.1,0,0,0,1.78-.51,1.07,1.07,0,0,0-.24-1c-.15-.18-.15-.27,0-.44l1-1c.19-.2.29-.2.48,0l1,1a1.61,1.61,0,0,1,2,.13,1.66,1.66,0,0,1,.22,2.12l.47.47A.26.26,0,0,1-168.19,708.92Z" transform="translate(185.8 -694.56)"/></svg>