<svg id="Layer_1" data-name="Layer 1" xmlns="http://www.w3.org/2000/svg" viewBox="0 0 16 12.52"><defs><style>.cls-1{fill:#046c9c;}.cls-2{fill:#54ffaa;}.cls-3{fill:#3696ff;}.cls-4{fill:#fff;}</style></defs><path class="cls-1" d="M298.3,289.94h11c.21,0,.36-.26.3-.51l-2.29-10.1H296.65c-.49,0-.85.61-.71,1.22l2.06,9.1A.33.33,0,0,0,298.3,289.94Z" transform="translate(-295.91 -277.42)"/><rect class="cls-2" x="2.16" width="11.59" height="12.52" rx="1.78"/><path class="cls-3" d="M309.51,289.94H298.28c-.11,0-.18-.13-.15-.26l2.21-9.79a.66.66,0,0,1,.59-.56h10.23c.5,0,.86.61.72,1.22l-2.06,9.1A.35.35,0,0,1,309.51,289.94Z" transform="translate(-295.91 -277.42)"/><path class="cls-4" d="M302.31,280.53h3.42a3.19,3.19,0,0,1,2.17.71,2.52,2.52,0,0,1,.81,2,2.59,2.59,0,0,1-.8,2,3.15,3.15,0,0,1-2.18.72h-1.45v2.32h-2Zm3.11,3.79a1.58,1.58,0,0,0,.93-.24,1,1,0,0,0,.34-.85.92.92,0,0,0-.33-.82,1.7,1.7,0,0,0-.94-.22h-1.14v2.13Z" transform="translate(-295.91 -277.42)"/></svg>