<?xml version="1.0" encoding="utf-8"?>
<!-- Generator: Adobe Illustrator 25.2.0, SVG Export Plug-In . SVG Version: 6.00 Build 0)  -->
<svg version="1.1" id="Layer_1" xmlns="http://www.w3.org/2000/svg" xmlns:xlink="http://www.w3.org/1999/xlink" x="0px" y="0px"
	 viewBox="0 0 21.3 21.3" style="enable-background:new 0 0 21.3 21.3;" xml:space="preserve">
<style type="text/css">
	.st0{fill:#FFFFFF;stroke:#000000;stroke-width:1.1436;stroke-miterlimit:10;}
	.st1{fill:#08B612;}
</style>
<circle class="st0" cx="11" cy="11.1" r="9.1"/>
<g>
	<path class="st1" d="M21,8.3c-0.2-1.3-0.8-2.6-1.6-3.7c-1.5-2.2-3.8-3.8-6.4-4.4C12.2,0.1,11.5,0,10.8,0C9.9,0,9,0.2,8.2,0.3
		C7.6,0.4,7.1,0.6,6.6,0.8C5.9,1.2,5.2,1.5,4.6,2C2.4,3.4,0.8,5.7,0.3,8.3C0,9.7-0.1,11.1,0.2,12.5c0.5,2.8,2.3,5.5,4.7,7
		c2.6,1.7,5.9,2.1,8.9,1.2c1-0.3,2-0.8,2.9-1.4c2.2-1.4,3.8-3.9,4.4-6.4C21.4,11.4,21.3,9.8,21,8.3z M5.3,5.5
		C5.3,5.4,5.4,5.4,5.3,5.5C5.6,5.2,5.8,5,6,4.8c0.1-0.2,0.4-0.3,0.7-0.2c0.1,0,0.1,0.1,0.2,0.1L9.4,7c0.1,0.1,0.2,0.2,0.2,0.3
		c0,0.2-0.1,0.4-0.2,0.6c-0.3,0.3-0.5,0.9-1,0.8C8.2,8.7,8.1,8.6,8,8.5C7.2,7.7,6.3,7,5.4,6.2C5.2,6.1,5.1,5.8,5.3,5.5z M13,16.8
		c-1.5-0.4-2.9-1.2-4.1-2.2c-1.7-1.2-3.1-2.8-4.1-4.5C4.6,9.9,4.5,9.7,4.4,9.5C3.7,8.5,4,7.1,5,6.3l3,2.6c-0.4,0.6-0.3,1.4,0.1,2
		c0.6,1.1,1.6,2,2.7,2.5c0.6,0.3,1.4,0.2,1.9-0.2l3,2.6C15.2,16.8,14,17.2,13,16.8z M17.3,14.5C17.3,14.5,17.3,14.6,17.3,14.5
		c-1.1,1.3-1,1.3-2.1,0.3l-2-1.8c-0.4-0.3-0.4-0.5-0.1-0.9l0.8-0.9c0.2,0,0.4,0.1,0.5,0.2c0.9,0.8,1.8,1.6,2.7,2.4
		C17.4,14,17.5,14.3,17.3,14.5z"/>
</g>
</svg>
