<svg id="Layer_1" data-name="Layer 1" xmlns="http://www.w3.org/2000/svg" viewBox="0 0 15.81 15.44"><defs><style>.cls-1{fill:#d35131;}.cls-2{fill:#fff;}</style></defs><path class="cls-1" d="M-144.88,564.34h1V566c1.92,0,3.85,0,5.76,0a.63.63,0,0,1,.7.7c0,3.35,0,6.71,0,10.06a2.12,2.12,0,0,1-.18,1.09,1.57,1.57,0,0,1-.91.18h-5.39v1.79H-145c-2.74-.5-5.48-.95-8.22-1.44V565.78C-150.43,565.3-147.66,564.81-144.88,564.34Z" transform="translate(153.2 -564.34)"/><path class="cls-2" d="M-143.87,566.49h5.93v11h-5.93V576h4.31v-.72h-4.31v-.9h4.31v-.71h-4.3c0-.36,0-.71,0-1.06a2.52,2.52,0,0,0,2.16-.21,2.47,2.47,0,0,0,1.11-2H-143c0-.78,0-1.56,0-2.34l-.89.18v-1.79Z" transform="translate(153.2 -564.34)"/><path class="cls-1" d="M-142.61,567.73a2.52,2.52,0,0,1,2.37,2.35h-2.37v-2.35Z" transform="translate(153.2 -564.34)"/><path class="cls-2" d="M-150.32,569.08c1,0,2.16-.38,3,.35a2.21,2.21,0,0,1-.58,3.23,2.7,2.7,0,0,1-1.32.16v2.11l-1.07-.09q0-2.88,0-5.76Z" transform="translate(153.2 -564.34)"/><path class="cls-1" d="M-149.25,570.05c.35,0,.79-.08,1,.26a1.3,1.3,0,0,1,0,1.17c-.2.37-.67.34-1,.38,0-.6,0-1.2,0-1.81Z" transform="translate(153.2 -564.34)"/></svg>