<svg id="Layer_1" data-name="Layer 1" xmlns="http://www.w3.org/2000/svg" viewBox="0 0 20.72 20.72"><defs><style>.cls-1{fill:#231f20;}</style></defs><path class="cls-1" d="M-66.46,203.16h-4c0,.15,0,.25,0,.35,0,.8,0,.86.84.86s1.65,0,2.47,0a1,1,0,0,0,.43-.13C-66.22,204-66.54,203.55-66.46,203.16Z" transform="translate(78.78 -197.65)"/><path class="cls-1" d="M-68.3,197.65a10.37,10.37,0,0,0-10.48,10.19,10.35,10.35,0,0,0,10.36,10.54,10.36,10.36,0,0,0,10.36-10.16A10.35,10.35,0,0,0-68.3,197.65Zm5.85,15.69h-12v-6c1.64.46,3.23.89,4.82,1.35.1,0,.2.24.21.36,0,.4,0,.79,0,1.23h1.89v-1.49l5.08-1.38ZM-69,209.8v-1.56h1.14v1.54l-.36,0Zm6.6-3a.38.38,0,0,1-.22.26l-4.83,1.32c0-.25,0-.46-.06-.69h-1.85l0,.66c-1.61-.45-3.21-.89-4.79-1.36a.45.45,0,0,1-.25-.33c0-.69,0-1.39,0-2.08,0-.32.18-.32.42-.32h2.51c.63,0,.69-.07.69-.66v-1H-66v1c0,.57.07.64.66.64h2.52l.4,0C-62.42,205.19-62.41,206-62.43,206.85Z" transform="translate(78.78 -197.65)"/></svg>