<svg id="Layer_1" data-name="Layer 1" xmlns="http://www.w3.org/2000/svg" viewBox="0 0 22.37 22.37"><defs><style>.cls-1{fill:#231f20;}</style></defs><path class="cls-1" d="M-131,390.5h-5.8c-.23,0-.29.08-.29.3,0,1.48,0,3,0,4.46,0,.25.08.32.32.32H-134a.82.82,0,0,1,.42.17c.39.32.76.67,1.2,1.05V396c0-.29.09-.38.38-.38h.94c.21,0,.3-.06.3-.29,0-1.51,0-3,0-4.52C-130.74,390.56-130.82,390.5-131,390.5Zm-1.49,1.49c-.21,0-.22.13-.28.29-.19.46-.42.91-.67,1.44a8.89,8.89,0,0,0,.74.62c.21.14.25.26.08.45s-.11.16-.2.29l-1.14-.93c-.23.18-.49.37-.73.58s-.27.13-.37-.06-.13-.19-.2-.3l.9-.76-.47-1c-.1-.2-.07-.3.18-.37s.4-.06.47.24a2.43,2.43,0,0,0,.26.54l.08,0,.53-1.07h-2v-.64h1c.08-.37.13-.39.7-.31l0,.3h1.11Z" transform="translate(148.19 -383.01)"/><path class="cls-1" d="M-140.44,395.82h.71c-.11-.41-.22-.8-.35-1.27C-140.21,395-140.32,395.42-140.44,395.82Z" transform="translate(148.19 -383.01)"/><path class="cls-1" d="M-137,383a11.19,11.19,0,0,0-11.18,11.18A11.19,11.19,0,0,0-137,405.38a11.19,11.19,0,0,0,11.19-11.19A11.19,11.19,0,0,0-137,383Zm.7,15.12a.74.74,0,0,1-.8.53c-.73,0-1.46,0-2.19,0a1.51,1.51,0,0,0-1.23.46c-.41.43-.89.79-1.34,1.19h-.21a.61.61,0,0,1-.2-.52c0-.37,0-.73,0-1.12h-.66c-.59,0-.75-.11-1-.67v-5c.21-.58.37-.7,1-.7H-139V393H-143c-.24,0-.3.08-.3.31,0,1.49,0,3,0,4.46,0,.24.08.32.31.31s.64,0,1,0a.31.31,0,0,1,.35.35v.88c.42-.37.79-.69,1.15-1a.75.75,0,0,1,.53-.2c.9,0,1.8,0,2.7,0,.36,0,.36,0,.36-.37v-.38h.65A7.73,7.73,0,0,1-136.31,398.13Zm-2.24-1.07c-.25,0-.48,0-.71,0-.05,0-.12-.08-.15-.14s-.08-.26-.13-.41h-1.06c-.08.18-.11.47-.24.53a2.09,2.09,0,0,1-.76,0l1-3.11h1C-139.25,395-138.91,396-138.55,397.06Zm8.45-1.53c-.22.56-.37.67-1,.67h-.66v.91a1.37,1.37,0,0,1,0,.35.59.59,0,0,1-.21.33.41.41,0,0,1-.35-.08c-.47-.4-.94-.81-1.38-1.23a.94.94,0,0,0-.73-.29c-.82,0-1.64,0-2.46,0a.78.78,0,0,1-.88-.88c0-1.49,0-3,0-4.46a.94.94,0,0,1,.59-1h6.47a1,1,0,0,1,.59.65Z" transform="translate(148.19 -383.01)"/></svg>