<?xml version="1.0" encoding="utf-8"?>
<!-- Generator: Adobe Illustrator 25.2.0, SVG Export Plug-In . SVG Version: 6.00 Build 0)  -->
<svg version="1.1" id="Layer_1" xmlns="http://www.w3.org/2000/svg" xmlns:xlink="http://www.w3.org/1999/xlink" x="0px" y="0px"
	 viewBox="0 0 21.6 21.6" style="enable-background:new 0 0 21.6 21.6;" xml:space="preserve">
<style type="text/css">
	.st0{fill:#45C452;}
	.st1{fill:#FFFFFF;}
</style>
<circle class="st0" cx="10.8" cy="10.2" r="10.8"/>
<path class="st1" d="M18,9.8c0,0.7-0.2,1.3-0.4,1.9c-0.3,0.6-0.7,1.1-1.1,1.6c-0.5,0.6-1.1,1.1-1.7,1.6c-1,0.8-2,1.5-3,2.1
	c-0.3,0.2-0.6,0.3-0.9,0.5c-0.1,0.1-0.2,0.1-0.4,0.1c-0.3,0-0.3-0.1-0.3-0.3s0.1-0.4,0.1-0.5c0-0.2,0-0.5,0-0.7
	c0-0.2-0.1-0.3-0.2-0.4c-0.2-0.1-0.4-0.1-0.6-0.2c-1.2-0.2-2.4-0.6-3.4-1.3c-0.8-0.6-1.5-1.3-1.9-2.2c-0.2-0.5-0.4-1-0.5-1.5
	c0-0.3,0-0.7,0-1c0-0.6,0.2-1.1,0.4-1.7c0.4-0.9,1-1.6,1.8-2.2c0.9-0.7,1.9-1.2,3-1.4C9.1,4,9.4,4,9.8,3.9c0.3,0,0.7-0.1,1-0.1
	c0.2,0,0.5,0,0.7,0c1,0.1,1.9,0.3,2.8,0.7c0.6,0.3,1.1,0.6,1.6,1c0.7,0.6,1.3,1.3,1.7,2.1c0.2,0.4,0.4,0.9,0.4,1.4
	C18,9.3,18,9.6,18,9.8z"/>
<path class="st0" d="M12.8,8.2h-0.4c-0.1,0-0.2,0-0.2,0.2v1.8l0,0l-0.1-0.1l-0.7-0.9l-0.6-0.9c0,0-0.1-0.1-0.1-0.1h-0.5
	c-0.1,0-0.1,0-0.1,0.1c0,0,0,0,0,0v3.1c0,0.1,0,0.2,0.2,0.2h0.3c0.2,0,0.2,0,0.2-0.2V9.7c0,0,0-0.1,0-0.1l0,0l0.1,0.1l1.3,1.8
	c0,0.1,0.1,0.1,0.2,0.1h0.3c0.2,0,0.2,0,0.2-0.2v-3C12.9,8.3,12.9,8.2,12.8,8.2z"/>
<path class="st0" d="M14.4,10.3h1.2c0.1,0,0.2,0,0.2-0.2V9.8c0-0.2,0-0.2-0.2-0.2h-1.3V9.1c0-0.1,0-0.1,0.1-0.1h1.3
	c0.1,0,0.1,0,0.1-0.1V8.3c0-0.1,0-0.1-0.1-0.1h-1.9c-0.2,0-0.2,0-0.2,0.2v3c0,0.1,0,0.1,0.1,0.1h2c0.1,0,0.1,0,0.1-0.1V11
	c0-0.1,0-0.1-0.1-0.1c0,0,0,0,0,0h-1.3c0,0-0.1,0-0.1-0.1v-0.5L14.4,10.3z"/>
<path class="st0" d="M8.1,10.9H6.8c0,0-0.1,0-0.1-0.1V8.4c0-0.1,0-0.2-0.2-0.2H6.2C6,8.2,6,8.2,6,8.4c0,1,0,2,0,3c0,0,0,0.1,0,0.1
	c0,0.1,0.1,0.1,0.1,0.1h2c0.1,0,0.1,0,0.1-0.1V11C8.2,10.9,8.2,10.9,8.1,10.9C8.1,10.9,8.1,10.9,8.1,10.9z"/>
<path class="st0" d="M6.7,9.6L6.7,9.6z"/>
<path class="st0" d="M9.5,8.3c0-0.1,0-0.1-0.1-0.1H8.9c-0.1,0-0.1,0-0.1,0.1c0,0,0,0,0,0v3.2c0,0.1,0,0.1,0.1,0.1c0,0,0,0,0,0h0.5
	c0.1,0,0.1,0,0.1-0.1V8.3z"/>
<path class="st0" d="M9.5,11.4L9.5,11.4z"/>
</svg>
