<svg id="Layer_1" data-name="Layer 1" xmlns="http://www.w3.org/2000/svg" viewBox="0 0 15.96 15.59"><defs><style>.cls-1{fill:#295f9f;}.cls-1,.cls-2{fill-rule:evenodd;}.cls-2{fill:#fff;}</style></defs><path class="cls-1" d="M-144.8,518.09h1.09v1.41s0,0,0,0h5.94a.61.61,0,0,1,.54.6v6c0,1.27,0,2.54,0,3.82v1.3c0,.12,0,.23,0,.35a1,1,0,0,1-.12.37.18.18,0,0,1-.09.1,1,1,0,0,1-.51.12l-.52,0h-5.22c-.05,0-.05,0-.05.06v1.34s0,0-.06,0h-1.11l-.29-.06-.86-.15-.79-.14-.79-.14-.85-.15-.81-.14-.81-.14-.8-.14-.77-.13-.76-.13-.67-.12s0,0,0,0v-.76a.07.07,0,0,0,0,0v-11a.13.13,0,0,0,0-.06v-.75s0-.05,0-.05l.25,0,.76-.14.81-.14.8-.14.81-.14.8-.13.72-.13.75-.13.75-.13.8-.14.88-.16Zm7.08,7.8v-5.75c0-.06,0-.06-.05-.06h-5.89c-.05,0-.05,0-.05,0v1.15c0,.08,0,.08.07.08h4.58c.06,0,.06,0,.06.06V522c0,.07,0,.06-.06.06h-4.6c-.05,0-.05,0-.05.06v.79c0,.08,0,.07.07.07H-139s.05,0,.05,0v.59c0,.08,0,.07-.07.07h-4.58c-.06,0-.06,0-.06.06v.78c0,.09,0,.09.08.09H-139c.05,0,.05,0,.05,0v.6c0,.06,0,.06-.05.06h-4.61c-.05,0-.05,0-.05,0v.8c0,.06,0,.06.06.06H-139s0,0,0,0v.64s0,0,0,0h-4.63s0,0,0,0v.82s0,.06.05,0H-139s0,0,0,0v.63s0,.05,0,0h-4.62c-.05,0-.05,0-.05.06v.79c0,.08,0,.07.06.07h4.6c.05,0,.05,0,.05.05v.61c0,.06,0,.06-.06.06h-4.6c-.05,0-.05,0-.05,0v1.37s0,0,0,0h5.88c.09,0,.08,0,.08-.08Zm-9.88,1h0c0-.12,0-.25-.08-.37-.09-.45-.19-.89-.28-1.33s-.13-.68-.2-1-.12-.57-.17-.86c0,0,0,0,0,0l-.4,0-.55,0s-.06,0-.06.05l-.3,1.39c-.13.57-.25,1.14-.38,1.72,0,.12,0,.24-.08.36,0-.12,0-.23-.05-.35l-.09-.59c0-.22-.08-.44-.11-.66s-.08-.49-.13-.73-.07-.47-.11-.7l-.06-.35s0,0,0,0H-151l-.49,0h-.14l0,.18c.06.29.11.59.17.88s.14.74.22,1.11.17.85.26,1.28.17.87.25,1.31c0,0,0,0,0,0l.37,0,.61,0s.05,0,.06,0a5.78,5.78,0,0,1,.12-.57l.3-1.41c.08-.38.15-.75.23-1.13l.06-.31c0,.19.07.38.11.56.11.55.23,1.1.34,1.65l.27,1.31s0,0,.06,0l.5,0a2,2,0,0,0,.34,0,.8.8,0,0,0,.21,0l0,0c0-.07,0-.14,0-.21.14-.61.29-1.22.43-1.83.11-.44.2-.89.3-1.33s.26-1.13.38-1.69c0-.06,0-.13,0-.2h-.1l-.33,0h-.61c-.06,0-.06,0-.07.06s-.05.29-.07.43l-.18,1-.18,1.08C-147.47,526.06-147.54,526.46-147.6,526.85Z" transform="translate(153.14 -518.09)"/><path class="cls-2" d="M-147.6,526.85c.06-.39.13-.79.2-1.18l.18-1.08.18-1c0-.14,0-.28.07-.43s0-.06.07-.06h.61l.33,0h.1c0,.07,0,.14,0,.2-.12.56-.25,1.12-.38,1.69s-.19.89-.3,1.33c-.14.61-.29,1.22-.43,1.83,0,.07,0,.14,0,.21l0,0a.8.8,0,0,1-.21,0,2,2,0,0,1-.34,0l-.5,0s-.05,0-.06,0l-.27-1.31c-.11-.55-.23-1.1-.34-1.65,0-.18-.07-.37-.11-.56l-.06.31c-.08.38-.15.75-.23,1.13l-.3,1.41a5.78,5.78,0,0,0-.12.57s0,0-.06,0l-.61,0-.37,0s0,0,0,0c-.08-.44-.17-.87-.25-1.31s-.18-.85-.26-1.28-.15-.74-.22-1.11-.11-.59-.17-.88l0-.18h.14l.49,0h.27s0,0,0,0l.06.35c0,.23.08.46.11.7s.09.49.13.73.07.44.11.66l.09.59c0,.12,0,.23.05.35,0-.12.06-.24.08-.36.13-.58.25-1.15.38-1.72l.3-1.39s0-.05.06-.05l.55,0,.4,0s0,0,0,0c.05.29.11.57.17.86s.13.68.2,1,.19.88.28,1.33c0,.12.05.25.08.37Z" transform="translate(153.14 -518.09)"/></svg>